<?xml version="1.0" encoding="UTF-8"?>
<svg width="18px" height="18px" viewBox="0 0 18 18" version="1.1" xmlns="http://www.w3.org/2000/svg" xmlns:xlink="http://www.w3.org/1999/xlink">
    <path d="M7.5958071,11.2515827 C7.5958071,11.2515827 10.2092224,11.6286952 11.1388176,6.62596146 C11.6066767,4.108347 10.3351695,2 7.5958071,2 C4.78808495,2 3.48476291,4.10867098 3.96444736,6.62594526 C4.91910238,11.6374912 7.5958071,11.2515827 7.5958071,11.2515827 L7.5958071,11.2515827 Z M9.62223581,12.4411717 C9.62223581,12.3510891 9.63001133,12.2630962 9.63577817,12.1744067 C9.0440453,12.1124618 8.38220321,12.0728229 7.62935521,12.0728229 C4.83279416,12.0728229 3.19433123,12.5883881 2.3249963,12.9651766 C1.54775261,13.301338 1,13.7454819 1,14.9719559 C1,15.5586509 1,15.5098757 1,16.2543003 L12.1418751,16.2543003 C10.6604938,15.6222967 9.62223581,14.1530808 9.62223581,12.4411717 L9.62223581,12.4411717 Z M13.941113,11.6517302 C14.0952302,11.4602743 14.2586294,11.2875769 14.4313916,11.1334435 C14.5807949,11.007383 14.7500257,10.8930181 14.9391327,10.7902517 C15.1282721,10.6875339 15.3255272,10.6431649 15.5309952,10.6571932 C15.8204387,10.680536 16.0620467,10.7493655 16.255819,10.8637789 C16.4496399,10.9781924 16.603676,11.1229142 16.7181057,11.2980414 C16.8324706,11.4731201 16.9106793,11.6715901 16.9527319,11.8933381 C16.994752,12.115086 17.008748,12.3427142 16.994752,12.5761741 C16.9807399,12.8096501 16.9399023,13.0325806 16.8722067,13.2450303 C16.8044787,13.4575124 16.7204222,13.6559501 16.6200694,13.8403593 C16.5197005,14.0247686 16.4088184,14.1952306 16.2873908,14.351648 C16.1659956,14.5080655 16.0446003,14.6493045 15.9231889,14.7753488 C15.7364308,14.9667722 15.5414921,15.1453661 15.3383892,15.3111303 C15.1352701,15.4768622 14.9414978,15.6193161 14.7570399,15.7383463 C14.5726306,15.8574574 14.4045499,15.9519785 14.252814,16.0220554 C14.1010457,16.0920836 13.9831656,16.1270734 13.8991091,16.1270734 C13.8057381,16.1317387 13.6866755,16.0990654 13.5419052,16.0290047 C13.3971672,15.9589765 13.2384495,15.864423 13.0656873,15.7453442 C12.8928927,15.6262655 12.7107836,15.4850265 12.5193926,15.3216273 C12.3279529,15.1582119 12.1388297,14.9854497 11.9520878,14.8033406 C11.8306926,14.6866107 11.6999505,14.5512358 11.5598779,14.397151 C11.4198052,14.2430176 11.2878968,14.073803 11.1641528,13.8893613 C11.0404249,13.7049682 10.9341919,13.5053319 10.8454863,13.2905657 C10.7567806,13.0757833 10.7077625,12.8469887 10.6984318,12.6041983 C10.6891174,12.3613593 10.7147442,12.1337473 10.775458,11.9213137 C10.8361394,11.7088964 10.9272102,11.5186393 11.0486054,11.3505424 C11.1699844,11.1824292 11.3194039,11.0412065 11.4968314,10.9268416 C11.6742427,10.8124119 11.8750292,10.7318544 12.0991746,10.6851689 C12.2112068,10.6618423 12.3232714,10.6583596 12.4353198,10.6747043 C12.5474168,10.6910491 12.6571002,10.7190572 12.7645157,10.7587285 C12.871915,10.7983998 12.9746328,10.8486491 13.072669,10.9093305 C13.1707215,10.9699957 13.2641087,11.0330584 13.3528468,11.0983889 C13.5582499,11.2524899 13.7543873,11.4369478 13.941113,11.6517302 L13.941113,11.6517302 Z" id="形状"></path>
</svg>
