<?xml version="1.0" standalone="no"?><!DOCTYPE svg PUBLIC "-//W3C//DTD SVG 1.1//EN" "http://www.w3.org/Graphics/SVG/1.1/DTD/svg11.dtd"><svg t="1577242360681" class="icon" viewBox="0 0 1024 1024" version="1.1" xmlns="http://www.w3.org/2000/svg" p-id="8376" xmlns:xlink="http://www.w3.org/1999/xlink" width="200" height="200"><defs><style type="text/css"></style></defs><path d="M85.3344 426.6656C85.3344 191.032411 276.366811 0 512 0c235.661633 0 426.6656 191.032411 426.6656 426.6656 0 235.661633-191.003967 426.6656-426.6656 426.6656-235.633189 0-426.6656-191.003967-426.6656-426.6656z m440.887787-105.557069c-61.439846 0-111.2175 49.350988-111.2175 110.250391 0 60.927848 49.777653 110.278835 111.2175 110.278835s111.2175-49.350988 111.217499-110.278835c0-60.870959-49.777653-110.250391-111.217499-110.250391zM526.222187 28.444373c-23.60883 0-42.780337 19.000841-42.780338 42.410561v63.630063c0 23.409719 19.143063 42.382116 42.780338 42.382116 23.60883 0 42.780337-18.972397 42.780337-42.382116V70.82649C569.002524 47.445215 549.859461 28.444373 526.222187 28.444373z m-312.888107 952.886507A42.66656 42.66656 0 0 1 256.00064 938.66432h511.99872a42.66656 42.66656 0 1 1 0 85.33312H256.00064a42.66656 42.66656 0 0 1-42.66656-42.66656z" p-id="8377"></path><path d="M459.776131 775.166062a42.239894 42.239894 0 0 1 19.114618 56.888747l-85.560675 169.642242a42.951004 42.951004 0 0 1-56.774969 17.806178 42.239894 42.239894 0 0 1-19.71195-55.722527l85.560675-169.642243a42.951004 42.951004 0 0 1 57.372301-18.972397z m132.892112 0a42.239894 42.239894 0 0 0-19.114619 56.888747l85.560675 169.642242a42.951004 42.951004 0 0 0 56.774969 17.806178 42.239894 42.239894 0 0 0 19.711951-55.722527l-85.560675-169.642243a42.951004 42.951004 0 0 0-57.372301-18.972397z" p-id="8378"></path></svg>
