<?xml version="1.0" standalone="no"?><!DOCTYPE svg PUBLIC "-//W3C//DTD SVG 1.1//EN" "http://www.w3.org/Graphics/SVG/1.1/DTD/svg11.dtd"><svg t="1577951637461" class="icon" viewBox="0 0 1024 1024" version="1.1" xmlns="http://www.w3.org/2000/svg" p-id="3443" xmlns:xlink="http://www.w3.org/1999/xlink" width="200" height="200"><defs><style type="text/css"></style></defs><path d="M325.818182 791.272727l372.363636 0 0 46.545455-372.363636 0 0-46.545455Z" p-id="3444"></path><path d="M325.818182 884.363636l372.363636 0 0 46.545455-372.363636 0 0-46.545455Z" p-id="3445"></path><path d="M325.818182 698.181818l372.363636 0 0 46.545455-372.363636 0 0-46.545455Z" p-id="3446"></path><path d="M558.545455 0 465.454545 0C418.909091 0 418.909091 69.957818 417.512727 69.957818L605.090909 69.957818C605.090909 69.957818 605.090909 0 558.545455 0z" p-id="3447"></path><path d="M232.727273 191.069091l0 734.952727C232.727273 1023.208727 334.289455 1024 334.289455 1024l355.421091 0c0 0 101.562182 0 101.562182-97.978182L791.272727 191.069091C791.272727 93.090909 689.710545 93.090909 689.710545 93.090909L334.289455 93.090909C334.289455 93.090909 232.727273 93.090909 232.727273 191.069091zM693.015273 139.636364C693.015273 139.636364 744.727273 139.636364 744.727273 188.928l0 739.234909C744.727273 977.454545 693.015273 977.454545 693.015273 977.454545L330.984727 977.454545C330.984727 977.454545 279.272727 977.454545 279.272727 928.162909L279.272727 188.928C279.272727 138.100364 330.984727 139.636364 330.984727 139.636364L693.015273 139.636364z" p-id="3448"></path><path d="M325.818182 605.090909l372.363636 0 0 46.545455-372.363636 0 0-46.545455Z" p-id="3449"></path></svg>