<?xml version="1.0" encoding="UTF-8"?>
<svg width="18px" height="18px" viewBox="0 0 18 18" version="1.1" xmlns="http://www.w3.org/2000/svg" xmlns:xlink="http://www.w3.org/1999/xlink">

                <path d="M15.8,5 C16.6,6.3 17,7.7 17,9.2 C17,13.5 13.6,17 9.3,17 C7.7,17 6.3,16.5 5,15.7 L5,15.7 L6,14.1 C7,14.7 8.1,15.1 9.3,15.1 C12.5,15.1 15.2,12.4 15.2,9.1 C15.2,8 14.9,6.9 14.3,5.9 L14.3,5.9 Z M9.2,1 C10.9,1 12.6,1.6 14,2.6 L14,2.6 L13,4 C11.9,3.2 10.6,2.8 9.2,2.8 C5.7,2.8 2.8,5.7 2.8,9.3 C2.8,10.6 3.2,11.9 4,13 L4,13 L2.5,14 C1.5,12.7 1,11 1,9.3 C1,4.7 4.7,1 9.2,1 Z M6.3,6.8 L7.3,10 L8.3,6.8 L9.8,6.8 L8,12.2 L6.4,12.2 L4.6,6.8 L6.3,6.8 Z M11.5,6.7 C12,6.7 12.5,6.8 12.8,6.9 L12.8,6.9 L13,7 L13,8.3 L12.7,8.2 C12.4,8.1 11.9,8 11.6,8 C11.2,8 11.1,8.1 11.1,8.3 C11.1,8.5 11.1,8.6 11.7,8.7 C12.8,9 13.2,9.4 13.2,10.5 C13.2,11.6 12.6,12.2 11.2,12.2 C10.7,12.2 10.2,12.2 9.8,12.1 L9.8,12.1 L9.6,12 L9.6,10.4 L9.9,10.5 C10.1,10.6 10.7,10.7 11.1,10.7 C11.6,10.7 11.7,10.7 11.7,10.4 C11.7,10.2 11.6,10.2 11,10 C9.9,9.8 9.5,9.4 9.5,8.4 C9.5,7.2 10.2,6.7 11.5,6.7 Z" id="形状结合"></path>

</svg>
