<?xml version="1.0" encoding="UTF-8"?>
<svg width="18px" height="18px" viewBox="0 0 18 18" version="1.1" xmlns="http://www.w3.org/2000/svg" xmlns:xlink="http://www.w3.org/1999/xlink">
    <path d="M16.325142,1 L13.8763387,1 L13.8763386,1 C13.5087037,1.02162675 13.2282015,1.3371773 13.2498172,1.70481036 C13.2696591,2.04226811 13.5388809,2.31148918 13.8763386,2.33133181 L15.6502839,2.33133181 L15.6502839,4.10412747 L15.6502839,4.10412721 C15.6767524,4.47144412 15.995978,4.74775543 16.3632949,4.72128781 C16.6937774,4.69747359 16.9566411,4.43460968 16.9804555,4.10412721 L16.9804555,1.6668206 L16.9804555,1.66682021 C16.9887152,1.30690072 16.7036376,1.00843126 16.3437181,1.00017158 C16.3375271,1 16.3313343,1 16.3251418,1 L16.325142,1 Z M1.66681214,4.78013515 L1.66681212,4.78013515 C2.03373562,4.77887045 2.33069255,4.48139803 2.33132307,4.11447452 L2.33132307,2.33248148 L4.10411873,2.33248148 L4.10411873,2.33248148 C4.47206975,2.31719338 4.75796107,2.00651687 4.74267222,1.63856405 C4.72827438,1.29203826 4.45064272,1.01440662 4.10411693,1.00001056 L1.66681032,1.00001056 L1.6668103,1.00001056 C1.2994377,1.00001056 1.00126644,1.29715071 1,1.66452151 L1,4.11332485 C1,4.47892084 1.29891496,4.7778358 1.6668103,4.7778358 L1.66681214,4.78013515 Z M16.325142,13.2129861 L16.325142,13.2129861 C15.9582185,13.2142508 15.6612615,13.5117232 15.660631,13.8786467 L15.660631,15.6514424 L13.8866857,15.6514424 L13.8866857,15.6514424 C13.5193688,15.6779109 13.2430575,15.9971365 13.2695251,16.3644534 C13.2933393,16.6949358 13.5562032,16.9577996 13.8866857,16.981614 L16.335489,16.981614 L16.335489,16.981614 C16.7019652,16.9803524 16.9987389,16.6835792 17,16.317103 L17,13.8682997 L17,13.8683 C16.9876485,13.5040243 16.6896242,13.2146301 16.325142,13.2129861 L16.325142,13.2129861 Z M4.11331613,15.6617894 L2.33132309,15.6617894 L2.33132309,13.8878441 L2.33132311,13.8878443 C2.30485458,13.5205274 1.98562903,13.2442161 1.61831212,13.2706837 C1.28782966,13.2944979 1.02496592,13.5573618 1.00115153,13.8878443 L1.00115153,16.3366476 C1.00115153,16.7022436 1.30006649,17.0011586 1.66566248,17.0011586 L4.11446582,17.0011586 L4.1144658,17.0011586 C4.4813893,16.9998939 4.77834623,16.7024215 4.77900205,16.335498 L4.77900205,16.3354974 C4.78215334,15.9666069 4.48568441,15.6649866 4.11679389,15.6618107 C4.11563469,15.6618007 4.11447547,15.6617937 4.11331624,15.6617898 L4.11331613,15.6617894 Z M10.1215069,13.7383866 L7.97391783,13.7383866 C5.95049348,13.7383866 4.3524481,13.7383866 4.3524481,12.710579 L4.3524481,12.4990392 C4.3524481,10.5330985 5.97693595,8.93505312 7.97391783,8.93505312 L10.1215069,8.93505312 C12.1184887,8.93505312 13.7429766,10.5330985 13.7429766,12.4990392 L13.7429766,12.710579 C13.7429766,13.7383866 12.0644541,13.7383866 10.1215069,13.7383866 Z M8.93964309,8.66258064 C7.35884282,8.66258064 6.07350848,7.39449139 6.07350848,5.83668457 C6.07350848,4.28002743 7.35884282,3.01193818 8.93964309,3.01193818 C10.521593,3.01193818 11.8069274,4.27887775 11.8069274,5.83668457 C11.8069274,7.39449139 10.521593,8.66258064 8.93964309,8.66258064 Z" id="形状"></path>
</svg>
