<?xml version="1.0" standalone="no"?><!DOCTYPE svg PUBLIC "-//W3C//DTD SVG 1.1//EN" "http://www.w3.org/Graphics/SVG/1.1/DTD/svg11.dtd"><svg t="1577241957593" class="icon" viewBox="0 0 1024 1024" version="1.1" xmlns="http://www.w3.org/2000/svg" p-id="4476" xmlns:xlink="http://www.w3.org/1999/xlink" width="200" height="200"><defs><style type="text/css"></style></defs><path d="M364.8 32C166.4 32 0 204.8 0 416c0 108.8 44.8 204.8 108.8 275.2l236.8 249.6c12.8 12.8 38.4 12.8 51.2 0l236.8-249.6c64-70.4 108.8-166.4 108.8-275.2-6.4-211.2-172.8-384-377.6-384zM1024 620.8c0 64-25.6 128-70.4 172.8l-153.6 153.6c-6.4 6.4-19.2 6.4-32 0l-153.6-153.6v-6.4l64-64 44.8-44.8c12.8 19.2 44.8 32 70.4 32 51.2 0 96-44.8 96-89.6s-44.8-89.6-96-89.6c6.4-38.4 12.8-76.8 12.8-115.2V384c121.6 6.4 217.6 108.8 217.6 236.8z m-320 332.8H448l64-64h128l64 64zM364.8 544c-83.2 0-147.2-64-147.2-140.8S288 256 364.8 256C448 256 512 313.6 512 396.8S448 544 364.8 544z" p-id="4477"></path></svg>
