<?xml version="1.0" encoding="UTF-8"?>
<svg width="18px" height="18px" viewBox="0 0 18 18" version="1.1" xmlns="http://www.w3.org/2000/svg" xmlns:xlink="http://www.w3.org/1999/xlink">

                <path d="M15.7000171,3.10909231 L2.30000151,3.10909231 C1.6000007,3.10909231 1,3.709093 1,4.40909382 L1,7.70909766 C1,11.2091017 3.20000256,14.2091052 6.10000593,15.4091066 C6.20000605,15.4091066 6.20000605,15.5091067 6.20000605,15.5091067 C6.30000617,15.6091069 6.20000605,15.709107 6.20000605,15.709107 L6.20000605,16.5091079 C6.20000605,16.5091079 6.20000605,16.7091081 6.40000628,16.8091082 C6.60000652,16.9091084 6.70000663,16.9091084 6.80000675,16.9091084 C7.1000071,16.9091084 7.90000803,17.0091085 8.90000919,16.9091084 C10.3000108,16.7091081 12.1000129,16.1091074 13.8000149,14.7091058 C16.1000176,12.7091035 17.0000186,10.0091003 17.0000186,7.70909766 L17.0000186,4.40909382 C17.0000186,3.709093 16.4000179,3.10909231 15.7000171,3.10909231 Z M12.7000136,8.20909824 L11.4000121,9.50909975 C11.300012,9.60909987 11.2000119,9.8091001 11.300012,9.90910022 L11.6000123,11.7091023 C11.7000125,12.1091028 11.2000119,12.4091031 10.9000115,12.2091029 L9.20000954,11.409102 C9.10000943,11.3091018 8.90000919,11.3091018 8.70000896,11.409102 L7.1000071,12.2091029 C6.70000663,12.4091031 6.30000617,12.1091028 6.40000628,11.7091023 L6.70000663,9.90910022 C6.70000663,9.70909999 6.70000663,9.60909987 6.60000652,9.50909975 L5.300005,8.20909824 C5.00000465,8.00909801 5.20000489,7.40909731 5.60000535,7.40909731 L7.40000745,7.10909696 C7.60000768,7.10909696 7.7000078,7.00909684 7.80000791,6.80909661 L8.60000884,5.20909475 C8.70000896,4.9090944 9.30000966,4.9090944 9.50000989,5.20909475 L10.3000108,6.80909661 C10.4000109,6.90909673 10.5000111,7.10909696 10.7000113,7.10909696 L12.5000134,7.40909731 C12.8000137,7.40909731 13.000014,8.00909801 12.7000136,8.20909824 L12.7000136,8.20909824 Z" id="形状"></path>

</svg>
