<?xml version="1.0" encoding="UTF-8"?>
<svg width="18px" height="18px" viewBox="0 0 18 18" version="1.1" xmlns="http://www.w3.org/2000/svg" xmlns:xlink="http://www.w3.org/1999/xlink">
    <path d="M16.81573,14.7813914 L14.5791921,12.54379 L14.5791919,12.5437902 C17.0221786,9.46241791 16.5046702,4.98404534 13.423298,2.54103825 C10.3419257,0.0980516059 5.86355312,0.615559934 3.42054603,3.69693221 C1.36620241,6.28810383 1.36620241,9.9526247 3.42054573,12.5437759 L1.1840078,14.7813772 L1.18400779,14.7813772 C0.938664103,15.0267209 0.938664103,15.4245013 1.18400759,15.669845 C1.27643608,15.7622737 1.39539307,15.8235704 1.52430541,15.8451957 L2.86351233,16.0703158 L3.08969586,17.4095227 L3.08969583,17.4095225 C3.1471078,17.7517079 3.47104617,17.9825624 3.81323159,17.9251514 C3.94212921,17.9035249 4.06107229,17.8422359 4.15349465,17.7498212 L6.95547096,14.9478653 L6.95547131,14.9478654 C8.2889582,15.3485477 9.71079982,15.3485477 11.0442806,14.9478652 L13.846216,17.7498006 L13.846216,17.7498006 C13.9639245,17.8676645 14.1236242,17.9341014 14.2901983,17.9341014 L14.2901983,17.9341014 C14.3552488,17.9338278 14.419873,17.9235859 14.4818203,17.9037322 L14.4818203,17.9037322 C14.705515,17.8322957 14.8706965,17.642069 14.9100557,17.4105662 L15.1362392,16.0703163 L16.4764687,15.8451962 L16.4764687,15.8451962 C16.8185744,15.7873104 17.0489809,15.4630524 16.9910955,15.1209468 C16.9693253,14.9922837 16.9080308,14.8735928 16.8157244,14.7813565 L16.81573,14.7813914 Z M4.12628174,16.0001852 L4.02891648,15.4201042 L4.02891647,15.4201042 C3.9844573,15.1561893 3.77768097,14.9494134 3.5137661,14.9049538 L2.93366464,14.8075681 L4.28125631,13.4599764 C4.33988815,13.5113074 4.4006264,13.5594481 4.46030123,13.6086522 L4.48439202,13.6285711 L4.48439196,13.628571 C4.56372696,13.6944878 4.64472193,13.7583809 4.72729794,13.8201888 L4.77545908,13.8557728 L4.77545859,13.8557724 C5.01843001,14.035908 5.27269629,14.2002872 5.53669296,14.3478975 L5.62360797,14.3971016 C5.64663534,14.4096787 5.66859927,14.4243418 5.69164709,14.4358555 L4.12628174,16.0001852 Z M11.2463593,11.2171602 L11.2463593,11.2171602 C10.9892954,11.4055846 10.6469873,11.4300059 10.3657773,11.2799844 L8.99726472,10.5606553 L7.63188104,11.2799844 L7.63188114,11.2799844 C7.22173842,11.4940018 6.71575399,11.335012 6.50173652,10.924868 C6.4173398,10.7631309 6.38805169,10.5782633 6.41832326,10.3983594 L6.67485547,8.87487222 L5.57228234,7.79532645 L5.57228238,7.79532649 C5.24226507,7.47111919 5.23755325,6.94076585 5.56176035,6.61074853 C5.68941968,6.48080118 5.8559605,6.39600915 6.03614247,6.36922501 L7.56590799,6.14619087 L8.24546067,4.75988624 L8.24546064,4.7598863 C8.45011992,4.3449929 8.95236597,4.17456586 9.36725937,4.37922515 C9.39148514,4.39117535 9.41511887,4.40429041 9.43807731,4.41852443 L9.43807728,4.41852441 C9.57022859,4.50172068 9.67677657,4.61986886 9.74592002,4.75988567 L10.4296446,6.1461903 L11.9604736,6.36922444 L11.9604736,6.36922444 C12.4187202,6.43271411 12.7387351,6.85566627 12.6752462,7.31391288 C12.649936,7.49659432 12.5650443,7.66581642 12.4337411,7.79532592 L11.3206973,8.87487169 L11.5824648,10.3983589 L11.5824648,10.3983589 C11.6362325,10.7124022 11.5071829,11.0297606 11.2495088,11.2171596 L11.2463593,11.2171602 Z M14.4838923,14.9049334 L14.4838923,14.9049334 C14.2199774,14.9493926 14.0132015,15.1561689 13.9687419,15.4200838 L13.8703132,16.0001852 L12.2997079,14.4295799 C12.3206493,14.4191091 12.3405477,14.406532 12.3614891,14.3950184 L12.4997147,14.3175311 C12.6316347,14.2421365 12.7614679,14.1625632 12.8892166,14.0788113 L12.9782176,14.0212225 C13.0473406,13.9751473 13.1143367,13.9259227 13.1813533,13.8767186 L13.2860603,13.8013377 C13.3530769,13.7500067 13.420073,13.6966307 13.4860466,13.6442772 L13.5698123,13.5741316 C13.6169304,13.5343348 13.6661345,13.4966239 13.7122097,13.4558045 L15.0608444,14.8033757 L14.4838923,14.9049334 Z" id="形状"></path>
</svg>
