<?xml version="1.0" encoding="UTF-8"?>
<svg width="18px" height="18px" viewBox="0 0 18 18" version="1.1" xmlns="http://www.w3.org/2000/svg" xmlns:xlink="http://www.w3.org/1999/xlink">
    <path d="M3.99149837,10.922408 L6.82912785,13.8133757 L4.20485115,13.8133757 C3.91148639,13.8133757 3.67679521,14.0534007 3.67679521,14.3467655 L3.67679521,14.3467655 C3.67679521,14.6454641 3.91148639,14.8854891 4.20485115,14.8854891 L4.20485115,14.8854891 L13.8058669,14.8854891 C14.0992316,14.8854891 14.3339228,14.6454641 14.3339228,14.3520994 L14.3339228,14.3520994 C14.3339228,14.0534007 14.0992316,13.8133757 13.8058669,13.8133757 L13.8058669,13.8133757 L11.0642399,13.8133757 L14.0672287,10.9277372 L14.5686156,10.9277372 C15.2140171,10.9277372 15.8754201,11.429124 16.0461054,12.0745255 L16.0461054,12.0745255 L16.9475303,15.4562265 C17.1768877,16.3203177 16.6274964,17.003056 15.8220788,17.003056 L15.8220788,17.003056 L2.07129523,17.003056 C1.26587755,17.003056 0.8284981,16.3203177 1.06318928,15.4562265 L1.06318928,15.4562265 L1.95928346,12.0691964 C2.12996881,11.4237949 2.7913718,10.922408 3.43677333,10.922408 L3.43677333,10.922408 L3.99149837,10.922408 Z M12.3295788,1.23218787 L12.4297118,1.31603349 L16.5101384,5.14044301 C16.9261821,5.53172257 16.9558995,6.15295776 16.5992906,6.57708813 L16.5101384,6.67127108 L9.53874409,13.3119779 L8.47196462,13.3119779 L4.26885861,8.96484466 C4.24763164,8.94531378 4.22722622,8.92490852 4.2076955,8.90368155 C3.84866762,8.5134723 3.84438261,7.9228008 4.17833378,7.52831995 L4.26885861,7.43401659 L10.7975442,1.31603349 C11.2185364,0.92475393 11.8786878,0.89680539 12.3295788,1.23218787 Z M12.3547131,4.03248912 L12.3165734,4.06426798 L12.0175242,4.44125629 C11.8115009,4.48922786 11.6116405,4.52174597 11.4231405,4.55216986 C11.0095807,4.617982 10.6483588,4.67620181 10.3638328,4.87126176 C10.083805,5.0633333 9.81345737,5.2827112 9.57145063,5.51686352 C9.3398002,5.74136868 9.13653252,5.979371 8.97772299,6.21832399 C8.8486495,6.41379958 8.72918302,6.71178386 8.63649078,7.03202355 C8.54388563,7.34976919 8.47543864,7.69466803 8.44783219,7.98208135 C8.24750911,8.22584737 8.05332779,8.50867552 7.89559255,8.78902461 C7.73982199,9.06633464 7.61724262,9.34539807 7.55678403,9.58714964 C7.5430251,9.63086537 7.54603252,9.67939645 7.56616776,9.72218043 L7.59202565,9.76265751 L7.60704103,9.78135861 L7.77541634,9.55529866 C7.81685519,9.49968967 7.8949709,9.48863332 7.9499551,9.52942675 C7.99119843,9.55999242 8.00844597,9.61160206 7.9970071,9.65896363 L7.97583237,9.70397242 L7.78245516,9.96427031 L7.77704664,9.97098221 L7.77069435,9.97766114 L8.09494605,10.3682457 C8.07652,10.41179 8.07440251,10.4619082 8.09141113,10.5073125 L8.11489947,10.5507272 L8.22186183,10.6654303 C8.26968919,10.7322895 8.35383857,10.7582937 8.42870526,10.7351094 L8.4824022,10.7083681 L8.71574545,10.5428979 C8.65211322,10.4980286 8.59186043,10.4463991 8.53746598,10.3880682 C8.33324516,10.1690682 8.22544124,9.88068919 8.23589364,9.58137164 C8.24634555,9.28209997 8.37400321,9.00194239 8.59302001,8.79770592 C8.81204375,8.59346298 9.10039899,8.48568117 9.39970021,8.49610446 C9.69898879,8.50658495 9.97916319,8.63422584 10.1833835,8.85322529 L10.2447735,8.92486702 L10.2447735,8.92486702 L10.2998195,9.00149119 L12.265835,7.16815219 C12.2164141,7.12943185 12.1702304,7.08769136 12.1267213,7.04103358 C11.9225005,6.82203356 11.8147087,6.53364327 11.8244918,6.23494985 C11.8349466,5.93567547 11.9632493,5.65491642 12.1822661,5.45067995 C12.4006448,5.24703848 12.6896688,5.13863309 12.9889405,5.14908389 C13.287613,5.16013887 13.5684093,5.28719988 13.7726296,5.50619932 L13.8185158,5.55897852 L13.8185158,5.55897852 L13.861038,5.61398937 L14.0319637,5.40492955 C14.0801069,5.34741882 14.0872237,5.27003601 14.057578,5.20661143 L14.0285173,5.16218876 L14.0156489,5.14920346 L14.0156489,5.14920346 L14.0072935,5.14202811 L13.9003312,5.02732502 C13.8637642,4.9969057 13.8122887,4.98992604 13.7644056,4.99886356 L13.7184052,5.01282821 L13.2494929,4.50998135 L13.2268152,4.53112871 L12.9981279,4.74317666 C12.9482323,4.78970512 12.8680863,4.786918 12.8209505,4.73637109 C12.7855988,4.698461 12.7786771,4.64426118 12.7987477,4.59964757 L12.8277625,4.55918774 L13.0603884,4.34226053 L13.0705911,4.33361377 L13.0705911,4.33361377 L13.0816332,4.32606836 L12.9823624,4.22481165 C12.9275078,4.16209504 12.8354656,4.14130528 12.7582302,4.18062526 L12.5953569,4.25557441 L12.5953569,4.25557441 L12.4324109,4.31970148 L12.5123737,4.21966966 C12.5550221,4.16536931 12.5464533,4.08734601 12.4921524,4.04469807 C12.4519235,4.01225678 12.397606,4.00930107 12.3547131,4.03248912 Z M9.38332524,8.80334221 C9.17611319,8.79548222 8.96483865,8.86770634 8.80088495,9.02059563 C8.63693762,9.17347899 8.55015128,9.37921196 8.54350864,9.58648387 C8.53561032,9.79493753 8.60790066,10.0049888 8.76136931,10.1695638 C8.91425806,10.3335169 9.1187328,10.4202598 9.32725176,10.4269455 C9.53448695,10.4347839 9.74576825,10.3625427 9.90970979,10.2096647 C10.0736693,10.05677 10.1604548,9.85105939 10.1670684,9.64380381 C10.1749504,9.43532104 10.1026767,9.22528772 9.94979337,9.06134039 C9.79632473,8.89676541 9.59182787,8.80999873 9.38332524,8.80334221 Z M9.36588216,9.3030069 C9.44602752,9.30581722 9.52511855,9.33866208 9.58432689,9.40214339 C9.64294943,9.46500836 9.67019732,9.54619784 9.66740407,9.62634956 C9.66526256,9.70588303 9.63114754,9.78494108 9.56829993,9.84354743 C9.50544074,9.90216457 9.4242125,9.93067633 9.34470641,9.92726999 C9.264544,9.92447665 9.18545886,9.8916263 9.12683578,9.82876075 C9.06763336,9.76527393 9.04037939,9.68409011 9.0431845,9.60392734 C9.04534353,9.52437785 9.07943506,9.44533056 9.14229482,9.38671289 C9.20514244,9.32810654 9.28638793,9.2995895 9.36588216,9.3030069 Z M10.0679672,5.56991342 L10.6141367,6.24785551 C9.9917534,6.92636864 9.32093149,7.61008888 8.8437866,7.82726246 C8.87591725,7.60709063 8.92890044,7.36506067 8.99519029,7.1360536 C9.07921875,6.84810789 9.18240223,6.58592587 9.28831361,6.42536337 C9.43192591,6.20908165 9.61816592,5.99179465 9.83161495,5.78546808 C9.9075197,5.71227312 9.98654959,5.63978287 10.0679672,5.56991342 Z M12.9725705,5.45631685 C12.7647129,5.44905886 12.5540776,5.5206869 12.3901302,5.67357026 C12.2255315,5.82706102 12.1393902,6.03219252 12.1321321,6.24003839 C12.1248556,6.44791216 12.1965004,6.65856543 12.349969,6.8231404 C12.5028578,6.98709352 12.7079781,7.07323447 12.9158752,7.08049999 C13.1237322,7.08775852 13.3343564,7.01613009 13.4989551,6.86263933 C13.6629088,6.70975003 13.7490551,6.5046355 13.7563136,6.29677845 C13.7635738,6.08887557 13.6919457,5.87824024 13.5390624,5.71429291 C13.3855937,5.54971793 13.1804513,5.46355326 12.9725705,5.45631685 Z M11.003322,6.4313264 C11.0504578,6.48187331 11.0482985,6.56141131 10.9977517,6.60854696 L10.7664481,6.82303478 C10.7159071,6.87016503 10.6370261,6.8673931 10.5898959,6.81685209 C10.5427656,6.76631108 10.5454977,6.68742295 10.5960385,6.64029286 L10.8267405,6.42515981 C10.8772815,6.37802956 10.9561864,6.38077961 11.003322,6.4313264 Z M12.955139,5.95597075 L13.0146503,5.96382067 C13.0732945,5.97739388 13.1285197,6.0081123 13.1729174,6.0557312 C13.2153433,6.10103593 13.2429045,6.15762755 13.252783,6.21798293 L13.2566628,6.27931425 L13.2485255,6.34023053 C13.2391549,6.37991366 13.2220578,6.41738018 13.1982232,6.45046308 L13.1575418,6.49652885 L13.1069853,6.53508126 C13.0537742,6.56778136 12.9934188,6.5829535 12.9332964,6.5808583 C12.8712651,6.57874488 12.8117866,6.55814497 12.7621673,6.52239378 L12.716105,6.4817157 L12.6775606,6.43116861 C12.6448667,6.37796634 12.629691,6.31761614 12.6317726,6.25751477 C12.634583,6.17735788 12.6680233,6.09891693 12.7315338,6.03969239 C12.7919432,5.98311739 12.872428,5.95298241 12.955139,5.95597075 Z M11.4620576,5.23304479 C11.4831924,5.23755103 11.5043442,5.24206363 11.5248688,5.24714988 C11.3711943,5.41104951 11.2087964,5.59155008 11.0360263,5.78175618 L10.9113584,5.92041616 L10.9113584,5.92041616 L10.7842844,6.06131991 L10.2717557,5.42469508 C10.5662992,5.23696913 10.8131969,5.20402055 10.9376418,5.19519778 L10.9832602,5.19251277 L10.9882763,5.19269365 C11.0931065,5.18821115 11.2846593,5.19615446 11.4620576,5.23304479 Z" id="形状结合"></path>
</svg>
