<?xml version="1.0" encoding="UTF-8"?>
<svg width="19px" height="16px" viewBox="0 0 19 16" version="1.1" xmlns="http://www.w3.org/2000/svg" xmlns:xlink="http://www.w3.org/1999/xlink">
    <!-- Generator: Sketch 59.1 (86144) - https://sketch.com -->
    <title>形状</title>
    <desc>Created with Sketch.</desc>
    <g id="设计图" stroke="none" stroke-width="1" fill="none" fill-rule="evenodd">
        <g id="调度初始页" transform="translate(-1053.000000, -17.000000)" fill="#409EFF" fill-rule="nonzero">
            <path d="M1069,17 L1055.28572,17 C1054.02858,17 1053,18.0285781 1053,19.2857188 L1053,28.4285781 C1053,29.6857188 1054.02858,30.7142813 1055.28572,30.7142813 L1061.57141,30.7142813 L1061.57141,31.8571406 L1057,31.8571406 C1056.65714,31.8571406 1056.42858,32.0857187 1056.42858,32.4285781 C1056.42858,32.7714375 1056.65714,33 1057,33 L1067.28572,33 C1067.62858,33 1067.85714,32.7714219 1067.85714,32.4285781 C1067.85714,32.0857344 1067.62858,31.8571406 1067.28572,31.8571406 L1062.71428,31.8571406 L1062.71428,30.7142812 L1069,30.7142812 C1070.25714,30.7142812 1071.28572,29.6857187 1071.28572,28.4285781 L1071.28572,19.2857188 C1071.28572,18.0285781 1070.25714,17 1069,17 Z M1070.14286,28.4285781 C1070.14286,29.1142813 1069.68572,29.5714219 1069,29.5714219 L1055.28572,29.5714219 C1054.6,29.5714219 1054.14286,29.1142813 1054.14286,28.4285781 L1054.14286,19.2857187 C1054.14286,18.6 1054.6,18.1428594 1055.28572,18.1428594 L1069,18.1428594 C1069.68572,18.1428594 1070.14286,18.6 1070.14286,19.2857187 L1070.14286,28.4285781 L1070.14286,28.4285781 Z M1067.97142,22.2571406 L1066.14286,24.0857187 L1063.17142,20.0857187 C1063.05714,19.9714219 1062.82858,19.8571406 1062.6,19.8571406 C1062.48572,19.8571406 1062.25714,19.9714219 1062.14286,20.2 L1060.31429,24.8857188 L1058.6,22.3714062 C1058.48572,22.257125 1058.37142,22.1428438 1058.14286,22.1428438 C1057.9143,22.1428438 1057.8,22.1428438 1057.68572,22.257125 L1055.4,24.5428594 C1055.28572,24.7714219 1055.28572,25.2285781 1055.4,25.4571406 C1055.51428,25.6857187 1055.97142,25.6857187 1056.2,25.4571406 L1058.02858,23.6285938 L1059.97141,26.4857187 C1060.0857,26.6 1060.19998,26.7142812 1060.42856,26.7142812 L1060.54284,26.7142812 C1060.77141,26.7142812 1060.8857,26.6 1060.99998,26.3714219 L1062.82856,21.5714219 L1065.6857,25.3428594 C1065.79998,25.4571406 1065.91427,25.5714219 1066.14284,25.5714219 C1066.25713,25.5714219 1066.4857,25.5714219 1066.59998,25.4571406 L1068.8857,23.1714219 C1069.11427,22.9428594 1069.11427,22.6 1068.8857,22.3714219 C1068.65712,22.1428594 1068.19998,22.1428594 1067.97141,22.2571406 L1067.97142,22.2571406 Z" id="形状"></path>
        </g>
    </g>
</svg>