<?xml version="1.0" encoding="UTF-8"?>
<svg width="16px" height="16px" viewBox="0 0 16 16" version="1.1" xmlns="http://www.w3.org/2000/svg" xmlns:xlink="http://www.w3.org/1999/xlink">
    <!-- Generator: Sketch 59.1 (86144) - https://sketch.com -->
    <title>形状</title>
    <desc>Created with Sketch.</desc>
    <g id="设计图" stroke="none" stroke-width="1" fill="none" fill-rule="evenodd">
        <g id="调度初始页" transform="translate(-1148.000000, -17.000000)" fill="#606266" fill-rule="nonzero">
            <g id="编组-8" transform="translate(1148.000000, 15.000000)">
                <path d="M8.55957477,14.4175357 C8.19100158,14.4175357 7.88948019,14.7191355 7.88948019,15.0877087 L7.88948019,17.3299211 C7.88948019,17.6984943 8.19100158,18 8.55957477,18 C8.92814796,18 9.22973208,17.6984943 9.22973208,17.3299211 L9.22973208,15.0877087 C9.22973208,14.7191355 8.92814796,14.4175357 8.55957477,14.4175357 Z M6.39503268,5.78159247 L8.55955909,3.61706606 L10.7240855,5.78159247 C10.984717,6.04222401 11.4111979,6.04222401 11.6718138,5.78159247 C11.9324139,5.52096092 11.9324139,5.09448006 11.6718138,4.83387989 L9.0334389,2.19547366 C8.77280736,1.93484211 8.3463265,1.93484211 8.08571064,2.19547366 L5.44730441,4.83387989 C5.18670423,5.09448006 5.18670423,5.5209766 5.44730441,5.78159247 C5.70792027,6.04220833 6.13441681,6.04220833 6.39503268,5.78159247 Z M15.7954449,12.364778 L13.1570544,9.72637177 C12.8964228,9.46574023 12.469942,9.46574023 12.2093261,9.72637177 C11.9486946,9.98700332 11.9486946,10.4134842 12.2093261,10.6740844 L14.3738525,12.8386108 L12.2093104,15.0031685 C11.9486789,15.2637687 11.9486789,15.6902653 12.2093104,15.9508811 C12.469942,16.211497 12.8964228,16.2115127 13.1570387,15.9508811 L15.7954293,13.3124749 C16.0560608,13.051859 16.0560608,12.6253939 15.7954449,12.364778 L15.7954449,12.364778 Z M7.88946451,5.40516127 L7.88946451,10.4619967 C7.88946451,10.8305699 8.19098589,11.1320756 8.55955909,11.1320756 C8.92813228,11.1320756 9.2297164,10.8305699 9.2297164,10.4619967 L9.2297164,5.40516127 C9.2297164,5.03658808 8.92813228,4.7350667 8.55955909,4.7350667 C8.19098589,4.7350667 7.88946451,5.03658808 7.88946451,5.40516127 Z M5.10643028,14.4175357 C4.73785709,14.4175357 4.43627297,14.7191355 4.43627297,15.0877087 L4.43627297,17.3299211 C4.43627297,17.6984943 4.73785709,18 5.10643028,18 C5.47500347,18 5.77652486,17.6984943 5.77652486,17.3299211 L5.77652486,15.0877087 C5.77652486,14.7191355 5.47500347,14.4175357 5.10643028,14.4175357 Z M12.2456517,13.4987142 C12.6142249,13.4987142 12.9158091,13.1971301 12.9158091,12.8285569 C12.9158091,12.4599837 12.6142249,12.1583839 12.2456517,12.1583839 L3.35067678,12.1583839 C2.24036161,12.1583839 1.34025189,11.2583526 1.34025189,10.1479747 C1.34025189,9.03765954 2.24036161,8.13754982 3.35067678,8.13754982 C4.46105469,8.13754982 5.36108598,9.03767522 5.36108598,10.1479747 C5.36108598,10.5180693 5.66116438,10.818132 6.03125898,10.818132 C6.40135358,10.818132 6.7014163,10.5180693 6.7014163,10.1479747 C6.7014163,8.29747034 5.20125957,6.79728225 3.35067678,6.79728225 C1.50017241,6.79728225 2.34479103e-13,8.29745465 2.34479103e-13,10.1479747 C2.34479103e-13,11.9985575 1.50017241,13.4987142 3.35067678,13.4987142 L12.2456517,13.4987142 L12.2456517,13.4987142 Z" id="形状"></path>
            </g>
        </g>
    </g>
</svg>